<svg xmlns="http://www.w3.org/2000/svg" data-name="Layer 1" viewBox="0 0 512 512"><path d="M239 398.996h-45.48a3 3 0 1 1 0-6H239a3 3 0 0 1 0 6ZM115.157 320.285h-.006a.5.5 0 0 1-.494-.506l.719-56.626a1.934 1.934 0 0 0-1.933-1.926H99.786a1.935 1.935 0 0 0-1.932 1.932v1.1a2.937 2.937 0 0 1-2.934 2.932H36.056a1.935 1.935 0 0 0-1.934 1.933v4.788a.5.5 0 0 1-1 0v-4.788a2.937 2.937 0 0 1 2.934-2.933H94.92a1.935 1.935 0 0 0 1.934-1.932v-1.1a2.936 2.936 0 0 1 2.932-2.932h13.657a2.936 2.936 0 0 1 2.933 2.932l-.719 56.633a.5.5 0 0 1-.5.493Z"/><path fill="#fed44a" d="M41.048 321.946h71.676a2.433 2.433 0 0 0 2.353-3.05l-11.39-43.481a2.433 2.433 0 0 0-2.354-1.817H27.095a2.433 2.433 0 0 0-2.316 3.176l13.952 43.482a2.433 2.433 0 0 0 2.317 1.69Z"/><path d="M394.912 292.776a3.125 3.125 0 0 1-.558-.05c-5.12-.937-5.73-14.575-5.784-16.127a27.175 27.175 0 0 0-1.377-10.921c-5.795 1.173-10.8.086-14.884-3.234-12.4-10.075-12.27-36.982-12.258-38.123a.5.5 0 0 1 .5-.495h.005a.5.5 0 0 1 .495.505c-.003.274-.138 27.568 11.89 37.338 3.935 3.198 8.805 4.187 14.464 2.942a.497.497 0 0 1 .57.3 27.295 27.295 0 0 1 1.593 11.718c.138 3.93 1.296 14.442 4.966 15.113 2.458.437 7.12-3.224 15.483-23.234a.5.5 0 0 1 .921.385c-6.706 16.051-11.959 23.883-16.026 23.883Z"/><path d="M374.889 248.522a3.33 3.33 0 0 1-1.858-.52 4.047 4.047 0 0 1-1.578-2.752 7.042 7.042 0 0 1 .401-3.832c.156-.509.326-1.068.478-1.731.45-1.955 1.008-4.386.027-6.699a6.258 6.258 0 0 0-3.768-3.608 5.775 5.775 0 0 0-3.667.18.5.5 0 1 1-.362-.931 6.758 6.758 0 0 1 4.312-.208 7.248 7.248 0 0 1 4.403 4.172c1.11 2.616.486 5.333.03 7.317-.159.689-.334 1.27-.495 1.799a6.17 6.17 0 0 0-.378 3.344 3.128 3.128 0 0 0 1.146 2.113 3.057 3.057 0 0 0 2.34.223 4.577 4.577 0 0 0 2.713-1.934.5.5 0 0 1 .828.56 5.543 5.543 0 0 1-4.572 2.508ZM376.518 230.586a.5.5 0 0 1-.422-.769c3.348-5.247 11.078-2.272 11.406-2.142a.5.5 0 0 1-.367.93c-.072-.029-7.292-2.798-10.196 1.75a.5.5 0 0 1-.421.23Z"/><ellipse cx="380.945" cy="237.026" rx="1.898" ry="3.065" transform="rotate(-8.237 380.942 237.025)"/><ellipse cx="367.134" cy="239.025" rx="1.898" ry="3.065" transform="rotate(-8.237 367.134 239.025)"/><path d="M380.506 253.533a.5.5 0 0 1-.043-.998c2.788-.245 4.63-1.089 5.475-2.509a4.993 4.993 0 0 0 .143-4.092.5.5 0 0 1 .918-.397 5.957 5.957 0 0 1-.201 5.001c-1.02 1.712-3.121 2.719-6.247 2.993a.733.733 0 0 1-.045.002ZM387.513 264.661a21.167 21.167 0 0 0 13.915-7.784 30.763 30.763 0 0 1-12.307 18.543 25.992 25.992 0 0 0-1.608-10.759Z"/><path d="M376.614 340.722a.499.499 0 0 1-.344-.138 19.086 19.086 0 0 0-7.514-4.397l-.988-.304a.501.501 0 0 1-.353-.494l.875-26.258-6.17-3.74a.5.5 0 0 1-.187-.656 90.895 90.895 0 0 1 26.48-31.474.5.5 0 0 1 .6.8 89.902 89.902 0 0 0-25.977 30.716l6.023 3.65a.5.5 0 0 1 .24.444l-.871 26.169.622.191a20.088 20.088 0 0 1 7.755 4.484c3.172-.116 40.932-1.5 45.091-1.778a.638.638 0 0 0 .527-.326c1.67-2.555-2.377-15.32-4.077-20.023a.5.5 0 0 1 .47-.67c2.245 0 8.159-1.972 17.105-5.703 4.254-1.774 8.646-3.606 12.566-5.5a87.456 87.456 0 0 0-38.23-36.567.5.5 0 0 1 .441-.898 88.47 88.47 0 0 1 38.918 37.447.5.5 0 0 1-.22.688c-4.062 1.988-8.652 3.902-13.09 5.754-8.41 3.506-14.05 5.432-16.795 5.736 1.214 3.446 5.824 17.108 3.749 20.283a1.635 1.635 0 0 1-1.297.778c-4.335.289-44.921 1.77-45.33 1.786Z"/><path d="m410.478 297.766 7.979 20.24 5.486-1.249-13.465-18.991zM369.28 309.083l.9-12.083-3.871 10.526 2.971 1.557z"/><path d="M330.469 385.138a6.072 6.072 0 0 1-1.555-.198c-1.897-.5-3.403-1.935-4.483-4.271-1.305.815-4.82 2.71-7.682 1.468-1.977-.859-3.197-3.011-3.629-6.397a19.908 19.908 0 0 1 1.504-10.206 48.622 48.622 0 0 1 7.382-12.632c-3.944 2.122-10.745 5.993-14.089 9.14-2.927 2.754-5.912 2.82-7.574 1.665-1.495-1.04-2.533-3.474-.966-7.187 2.644-6.263 17.334-18.011 21.89-20.243-1.656-1.41-5.859-5.324-6.594-9.247-.622-3.317-.161-5.836 1.298-7.089 1.238-1.065 3.085-1.178 5.489-.335a37.424 37.424 0 0 1 7.98 4.517c3.152 2.128 6.41 4.328 9.612 4.952 3.813.744 7.7 1.2 10.54 1.531 1.673.197 2.995.351 3.901.511 5.214.921 17.936 3.616 23.461 8.737a.5.5 0 0 1-.68.734c-5.33-4.94-17.829-7.58-22.955-8.487-.878-.154-2.252-.315-3.843-.502-2.855-.334-6.764-.79-10.616-1.542-3.401-.664-6.745-2.921-9.98-5.105a36.801 36.801 0 0 0-7.75-4.402c-2.045-.716-3.56-.665-4.508.15-1.16.996-1.513 3.236-.967 6.147.831 4.427 6.827 9.138 6.888 9.185a.5.5 0 0 1-.189.88c-2.763.673-19.32 13.519-22.055 19.997-1.117 2.646-.882 4.936.614 5.977 1.331.924 3.8.8 6.318-1.573 4.96-4.667 16.84-10.631 17.343-10.883a.5.5 0 0 1 .538.835c-4.476 3.619-7.915 10.737-9.566 14.658a18.9 18.9 0 0 0-1.434 9.69c.384 3.01 1.405 4.897 3.032 5.605 2.995 1.301 7.173-1.671 7.215-1.7a.5.5 0 0 1 .755.215c.966 2.358 2.33 3.784 4.051 4.24 3.13.827 6.53-1.789 6.563-1.816a.503.503 0 0 1 .671.049 3.19 3.19 0 0 0 2.75 1.212c3.1-.384 6.304-6.065 8.218-9.46a27.485 27.485 0 0 1 1.704-2.808c1.203-1.548 3.44-.28 6.532 1.468 3.414 1.93 7.646 4.33 12.295 4.178l1.597-.05c60.343-1.876 96.832-5.923 100.112-11.103 5.326-8.406-22.752-57.967-23.036-58.467a.5.5 0 1 1 .87-.495c1.172 2.062 28.655 50.588 23.012 59.498-4.74 7.481-65.268 10.458-100.927 11.566l-1.594.05c-4.93.157-9.484-2.42-12.82-4.306-2.457-1.389-4.579-2.59-5.252-1.725a28.047 28.047 0 0 0-1.622 2.686c-2.137 3.79-5.366 9.515-8.967 9.96a3.995 3.995 0 0 1-3.284-1.206 10.474 10.474 0 0 1-5.518 1.934Z"/><path d="M336.037 383.05a.498.498 0 0 1-.463-.31c-1.974-4.861 8.083-20.108 8.512-20.755a.5.5 0 1 1 .834.553c-2.842 4.283-9.895 16.194-8.42 19.824a.5.5 0 0 1-.463.689ZM324.652 380.423l-.043-.002a.5.5 0 0 1-.456-.54c.878-10.533 10.831-23.647 11.254-24.2a.5.5 0 0 1 .795.608c-.102.134-10.2 13.436-11.053 23.676a.5.5 0 0 1-.497.458ZM351.488 331.837a.5.5 0 0 1-.425-.765l14.822-23.811a.5.5 0 0 1 .85.529l-14.822 23.812a.5.5 0 0 1-.425.235ZM467.111 388.438a.501.501 0 0 1-.482-.367l-5.066-18.382a.5.5 0 0 1 .35-.615.506.506 0 0 1 .615.35l5.066 18.382a.5.5 0 0 1-.35.615.517.517 0 0 1-.133.017ZM367.915 388.438a.5.5 0 0 1-.5-.5v-10.642a.5.5 0 1 1 1 0v10.642a.5.5 0 0 1-.5.5Z"/><path d="M477.426 388.438H151.638a.5.5 0 0 1 0-1h325.788a.5.5 0 1 1 0 1Z"/><path fill="#fd6f41" d="M175.013 374.863h107.666l-16.218-77.847h-106.99a1.622 1.622 0 0 0-1.588 1.953l15.542 74.603a1.622 1.622 0 0 0 1.588 1.291Z"/><path d="m273.038 298.307 15.543 74.603a1.622 1.622 0 0 1-1.588 1.953h-4.314l-16.218-77.847h4.99a1.622 1.622 0 0 1 1.587 1.291Z"/><path fill="#674cfb" d="M188.689 398.996h25.745l16.218-46.708H203.78a1.622 1.622 0 0 0-1.532 1.09l-15.092 43.464a1.622 1.622 0 0 0 1.532 2.154Z"/><path d="m235.339 354.441-15.092 43.465a1.622 1.622 0 0 1-1.532 1.09h-4.281l16.218-46.708h3.155a1.622 1.622 0 0 1 1.532 2.153Z"/><rect width="11.677" height="7.395" x="214.239" y="332.242" rx="3.698" transform="rotate(-180 220.078 335.94)"/><path fill="#fed44a" d="M487.34 342.234h-45.522v-5.193h45.521z"/><path fill="#674cfb" d="M154.635 278.396h45.521v5.193h-45.521z"/><path fill="#fd6f41" d="M395.8 180.635h45.521v5.193H395.8z"/><path d="M344.503 269.967a3.818 3.818 0 1 1 3.818-3.819 3.823 3.823 0 0 1-3.818 3.819Zm0-6.637a2.818 2.818 0 1 0 2.818 2.818 2.822 2.822 0 0 0-2.818-2.818Z"/><path fill="#fd6f41" d="m135.62 305.28 5.936-1.622-4.314-5.125-1.622 6.747z"/><path fill="#fed44a" d="m467.79 291.336 5.936-1.621-4.314-5.125-1.622 6.746zM350.263 172.808l5.935-1.622-4.314-5.125-1.621 6.747z"/><path fill="#674cfb" d="m415.593 204.739 5.935-1.622-4.314-5.125-1.621 6.747z"/><path fill="#2ca68f" d="m311.564 402.701 5.936-1.622-4.314-5.125-1.622 6.747z"/><path d="M407.494 224.333s-1.22-21.147-9.353-21.96-7.32-6.1-11.793-5.693-8.744 6.71-11.793 6.506-11.59-10.776-19.724-3.456-6.303 27.653 12.81 24.603 10.98-10.167 22.163-6.304 9.964 16.877 11.794 16.877 2.44-10.777 5.896-10.573Z"/><path d="M410.478 269.2a.497.497 0 0 1-.425-.237c-6.035-9.751-4.675-24.966-4.615-25.609a.507.507 0 0 1 .108-.264c4.133-5.183 5.845-9.69 5.09-13.395a7.56 7.56 0 0 0-3.38-4.923.5.5 0 0 1 .476-.878 8.486 8.486 0 0 1 3.884 5.602c.81 3.98-.936 8.722-5.194 14.098-.126 1.597-1.07 15.874 4.48 24.844a.5.5 0 0 1-.424.762ZM189.107 257.392h-50.52a.5.5 0 0 1-.5-.5v-64.607a.5.5 0 0 1 .5-.5h37.425a.5.5 0 0 1 0 1h-36.924v63.607h49.52V205.38a.5.5 0 0 1 1 0v51.51a.5.5 0 0 1-.5.5Z"/><path d="M189.107 205.89h-13.104a.5.5 0 0 1-.5-.5v-13.105a.5.5 0 0 1 .853-.353l13.105 13.104a.5.5 0 0 1-.354.854Zm-12.604-1H187.9l-11.397-11.398ZM205.623 239.418h-16.516a.5.5 0 0 1 0-1h16.016v-51.01a.5.5 0 0 1 1 0v51.51a.5.5 0 0 1-.5.5ZM155.104 192.785a.5.5 0 0 1-.5-.5v-17.972a.5.5 0 0 1 .5-.5h37.423a.5.5 0 0 1 0 1h-36.923v17.472a.5.5 0 0 1-.5.5Z"/><path d="M205.623 187.917h-13.104a.5.5 0 0 1-.5-.5v-13.105a.5.5 0 0 1 .853-.353l13.105 13.104a.5.5 0 0 1-.354.854Zm-12.604-1h11.397l-11.397-11.397ZM222.139 221.445h-16.516a.5.5 0 1 1 0-1h16.016v-51.01a.5.5 0 0 1 1 0v51.51a.5.5 0 0 1-.5.5ZM171.62 174.813a.5.5 0 0 1-.5-.5V156.34a.5.5 0 0 1 .5-.5h37.423a.5.5 0 0 1 0 1H172.12v17.472a.5.5 0 0 1-.5.5Z"/><path d="M222.139 169.944h-13.105a.5.5 0 0 1-.5-.5V156.34a.5.5 0 0 1 .854-.354l13.104 13.105a.5.5 0 0 1-.353.853Zm-12.605-1h11.398l-11.398-11.397ZM165.952 200.477h-21.13a.5.5 0 0 1 0-1h21.13a.5.5 0 1 1 0 1ZM165.952 207.52h-21.13a.5.5 0 0 1 0-1h21.13a.5.5 0 1 1 0 1ZM181.578 214.563h-36.756a.5.5 0 0 1 0-1h36.756a.5.5 0 0 1 0 1ZM181.578 221.607h-36.756a.5.5 0 0 1 0-1h36.756a.5.5 0 0 1 0 1ZM181.578 228.65h-36.756a.5.5 0 0 1 0-1h36.756a.5.5 0 0 1 0 1ZM181.578 235.694h-36.756a.5.5 0 0 1 0-1h36.756a.5.5 0 0 1 0 1ZM181.578 242.737h-36.756a.5.5 0 0 1 0-1h36.756a.5.5 0 0 1 0 1ZM181.578 249.781h-36.756a.5.5 0 0 1 0-1h36.756a.5.5 0 0 1 0 1ZM181.74 185.742h-21.13a.5.5 0 0 1 0-1h21.13a.5.5 0 0 1 0 1ZM181.74 192.785h-21.13a.5.5 0 0 1 0-1h21.13a.5.5 0 0 1 0 1ZM197.365 199.83h-14.32a.5.5 0 0 1 0-1h14.32a.5.5 0 0 1 0 1ZM197.365 206.872h-8.258a.5.5 0 0 1 0-1h8.258a.5.5 0 0 1 0 1ZM197.365 213.916h-8.258a.5.5 0 0 1 0-1h8.258a.5.5 0 0 1 0 1ZM197.365 220.959h-8.258a.5.5 0 0 1 0-1h8.258a.5.5 0 0 1 0 1ZM197.365 228.003h-8.258a.5.5 0 0 1 0-1h8.258a.5.5 0 0 1 0 1ZM197.365 235.047h-8.258a.5.5 0 0 1 0-1h8.258a.5.5 0 0 1 0 1ZM198.256 167.769h-21.131a.5.5 0 0 1 0-1h21.13a.5.5 0 0 1 0 1ZM198.256 174.813h-21.131a.5.5 0 0 1 0-1h21.13a.5.5 0 0 1 0 1ZM213.88 181.856h-14.318a.5.5 0 1 1 0-1h14.319a.5.5 0 0 1 0 1ZM213.88 188.9h-8.257a.5.5 0 0 1 0-1h8.258a.5.5 0 0 1 0 1ZM213.88 195.943h-8.257a.5.5 0 0 1 0-1h8.258a.5.5 0 0 1 0 1ZM213.88 202.986h-8.257a.5.5 0 1 1 0-1h8.258a.5.5 0 1 1 0 1ZM213.88 210.03h-8.257a.5.5 0 0 1 0-1h8.258a.5.5 0 0 1 0 1ZM213.88 217.073h-8.257a.5.5 0 1 1 0-1h8.258a.5.5 0 1 1 0 1Z"/><path fill="#674cfb" d="M235.851 158.253a14.042 14.042 0 0 1 22.696-7.204 19.558 19.558 0 0 1 24.701-13.45c-.01-.298-.022-.595-.022-.896a27.404 27.404 0 1 1 54.808 0c0 .204-.01.405-.015.608a19.555 19.555 0 0 1 24.223 20.942Z"/><path d="M69.817 262.746a.5.5 0 0 1-.5-.5v-7.997a5.372 5.372 0 0 1 5.367-5.365h38.841a4.37 4.37 0 0 0 4.366-4.365v-30.123a4.37 4.37 0 0 0-4.366-4.366H90.561a5.372 5.372 0 0 1-5.366-5.366V174.3a5.372 5.372 0 0 1 5.366-5.365h80.56V156.34a.5.5 0 0 1 .5-.5h14.944v-29.634a5.372 5.372 0 0 1 5.367-5.365h17.636a5.372 5.372 0 0 1 5.366 5.365v5.969a4.37 4.37 0 0 0 4.365 4.365h43.034a.5.5 0 0 1 0 1h-43.034a5.372 5.372 0 0 1-5.365-5.365v-5.969a4.37 4.37 0 0 0-4.366-4.365h-17.636a4.37 4.37 0 0 0-4.367 4.365v30.134a.5.5 0 0 1-.5.5H172.12v12.595a.5.5 0 0 1-.5.5H90.56a4.37 4.37 0 0 0-4.365 4.365v30.364a4.37 4.37 0 0 0 4.366 4.366h22.964a5.372 5.372 0 0 1 5.366 5.366v30.123a5.372 5.372 0 0 1-5.366 5.365H74.684a4.37 4.37 0 0 0-4.367 4.365v7.997a.5.5 0 0 1-.5.5ZM252.092 289.407a.5.5 0 0 1-.5-.5v-23.315a4.37 4.37 0 0 0-4.365-4.365h-11.71a5.372 5.372 0 0 1-5.365-5.366v-22.336a5.372 5.372 0 0 1 5.366-5.366h76.516a4.37 4.37 0 0 0 4.365-4.365V197.15a4.37 4.37 0 0 0-4.365-4.366H273.89a5.372 5.372 0 0 1-5.367-5.365v-9.746a5.372 5.372 0 0 1 5.367-5.366h20.341a4.37 4.37 0 0 0 4.366-4.366v-3.668a.5.5 0 0 1 1 0v3.668a5.372 5.372 0 0 1-5.366 5.366H273.89a4.372 4.372 0 0 0-4.367 4.366v9.746a4.37 4.37 0 0 0 4.367 4.365h38.144a5.372 5.372 0 0 1 5.365 5.366v26.643a5.372 5.372 0 0 1-5.365 5.365h-76.516a4.37 4.37 0 0 0-4.366 4.366v22.336a4.37 4.37 0 0 0 4.366 4.366h11.709a5.372 5.372 0 0 1 5.365 5.365v23.315a.5.5 0 0 1-.5.5ZM323.34 136.988a10.222 10.222 0 0 1-4.754 8.66 1.173 1.173 0 0 1-1.26-1.98 7.915 7.915 0 0 0-4.245-14.594h-4.79l1.371 1.372a1.172 1.172 0 1 1-1.658 1.655l-3.373-3.37a1.191 1.191 0 0 1-.147-.18.965.965 0 0 1-.046-.086.675.675 0 0 1-.098-.234c-.01-.032-.023-.066-.03-.1a1.183 1.183 0 0 1 0-.459c.007-.036.02-.068.03-.102a.664.664 0 0 1 .098-.232.612.612 0 0 1 .046-.087 1.208 1.208 0 0 1 .147-.18l3.373-3.372a1.172 1.172 0 0 1 1.658 1.658l-1.372 1.372h4.791a10.272 10.272 0 0 1 10.26 10.26ZM314.164 146.524c.014-.039.026-.078.037-.117.01-.034.023-.066.03-.103a1.183 1.183 0 0 0 0-.458c-.007-.034-.02-.069-.03-.1a.657.657 0 0 0-.099-.234.775.775 0 0 0-.046-.087 1.192 1.192 0 0 0-.146-.179l-3.373-3.37a1.172 1.172 0 0 0-1.658 1.655l1.372 1.372h-4.791a7.915 7.915 0 0 1-4.246-14.595 1.173 1.173 0 0 0-1.26-1.979 10.26 10.26 0 0 0 5.506 18.919h4.79l-1.371 1.372a1.172 1.172 0 1 0 1.658 1.658l3.373-3.371a1.208 1.208 0 0 0 .146-.182.614.614 0 0 0 .046-.086 1.266 1.266 0 0 0 .062-.115Z"/></svg>