<svg xmlns="http://www.w3.org/2000/svg" xmlns:xlink="http://www.w3.org/1999/xlink" enable-background="new 0 0 6000 4000" viewBox="0 0 6000 4000"><path fill="#356a9b" d="M2259.7 3108.3c322.2-40.3 648.8-58.2 962 44.7 170 58.2 349 13.4 528-31.3 44.7-13.4 89.5-13.4 129.8 0 134.2 58.2 273 107.4 420.6 89.5 71.6-8.9 134.2-35.8 210.3-40.3 58.2 0 111.9-31.3 165.6-40.3 36.2-5.8 73-10.7 110-13.6-851.7-182-3162.5-241.9-3816.5-33.3 0 0-117.9 84.9-103.1 183.2 281.6-172.6 648.1-143.4 972.7-163.2 138.7-8.8 286.3 22.5 420.6 4.6"/><path fill="#659ac9" d="M5103.6 3256.2c-36.3-37.6-126.9-98.3-317.7-139-36.9 2.8-73.8 7.7-110 13.6-53.7 8.9-107.4 40.3-165.6 40.3-76.1 4.5-138.7 31.3-210.3 40.3-147.7 17.9-286.4-31.3-420.6-89.5-40.3-13.4-85-13.4-129.8 0-179 44.7-358 89.5-528 31.3-313.2-102.9-639.9-85-962-44.7-134.2 17.9-281.9-13.4-420.6-4.5-324.5 19.8-691-9.4-972.7 163.2 14.6 97.1-62.6 255 690.7 186.9 202.5-18.3 582.1 243.3 900.9 153.1 403.8-114.2 907.1-224.7 1776.9-102.9 869.9 121.7 1001.3-111 868.8-248.1"/><g opacity=".18"><defs><path id="a" d="M707 2790.6h4582V3784H707z"/></defs><clipPath id="b"><use overflow="visible" xlink:href="#a"/></clipPath><g clip-path="url(#b)"><defs><path id="c" d="M707 2790.6h4582V3784H707z"/></defs><clipPath id="d"><use overflow="visible" xlink:href="#c"/></clipPath></g></g><defs><path id="e" d="M1554.9 2476.8c-37.7 55.3 30.5 195.8 33.3 237.7 2.8 41.9-62.7 1-46 62.2 16.7 61.2 26.6 179 115.7 250.9 89 71.8 321.9-33.3 306.2-120.7-9.5-53-30.9-51.1-57.1-49.2-17 1.2-36 2.4-55.2-11.3-48.7-35 12.4-71.6-23.7-103.3-36.1-31.7-54.4-3.4-54.4-3.4s5-10.7 2.5-37.9-29.2-54.6-71.1-62.1c-41.9-7.5-33.1-116.3-42.9-138.8-10.3-23.5-37-50.3-64.9-50.3-14.6-.1-29.5 7.2-42.4 26.2"/></defs><clipPath id="f"><use overflow="visible" xlink:href="#e"/></clipPath><linearGradient id="g" x1="1826.116" x2="1830.591" y1="2774.054" y2="2774.054" gradientTransform="matrix(121.1573 150.454 147.6128 -123.9378 -629313.875 71430.086)" gradientUnits="userSpaceOnUse"><stop offset="0" stop-color="#b6f2f0"/><stop offset=".13" stop-color="#b6f2f0"/><stop offset=".258" stop-color="#90dbd9"/><stop offset=".402" stop-color="#6dc6c4"/><stop offset=".548" stop-color="#52b5b4"/><stop offset=".696" stop-color="#3ea9a8"/><stop offset=".845" stop-color="#33a2a1"/><stop offset="1" stop-color="#2fa09f"/></linearGradient><path fill="url(#g)" d="m1793.2 2218.7 498.4 618.9-587.9 493.6-498.4-619z" clip-path="url(#f)"/><g opacity=".38"><defs><path id="h" d="M1378.2 2285h751.7v930.7h-751.7z"/></defs><clipPath id="i"><use overflow="visible" xlink:href="#h"/></clipPath><g clip-path="url(#i)"><defs><path id="j" d="M1378.2 2285h751.7v930.7h-751.7z"/></defs><clipPath id="k"><use overflow="visible" xlink:href="#j"/></clipPath></g></g><defs><path id="l" d="M1554.9 2476.8c-37.7 55.3 30.5 195.8 33.3 237.7 2.8 41.9-62.7 1-46 62.2 16.7 61.2 26.6 179 115.7 250.9 89 71.8 321.9-33.3 306.2-120.7-9.5-53-30.9-51.1-57.1-49.2-17 1.2-36 2.4-55.2-11.3-48.7-35 12.4-71.6-23.7-103.3-36.1-31.7-54.4-3.4-54.4-3.4s5-10.7 2.5-37.9-29.2-54.6-71.1-62.1c-41.9-7.5-14-113.7-24.2-143.2-5.4-15.7-43.7-44.3-79.6-44.3-17.4 0-34.2 6.6-46.4 24.6"/></defs><clipPath id="m"><use overflow="visible" xlink:href="#l"/></clipPath><path fill="#2d65af" d="M1893.8 2933.5c-36.1 8.9-68.3-20.9-92.6-43.2-23.1-21.2-44.9-43.9-65.3-67.7-41.8-48.9-77.8-102.8-107.6-159.8-17.3-33.2-32.5-67.5-45.6-102.7-.6-1.7-3.4-1-2.8.8 23.5 63.2 53.9 123.8 91 180.1 36 54.6 78.2 105.2 126.2 149.6 25.6 23.6 59.3 55.2 97.3 45.8 1.9-.6 1.2-3.4-.6-2.9" clip-path="url(#m)"/><path fill="#2d65af" d="M1630.9 2763.4c14 8.3 27.5 17.4 40.6 27.1 3.5 2.6 7 5.2 10.4 7.9 2.3 1.8 4.7 4.2 7.6 5.1 3.1.9 6.3-.6 9.2-1.6 4-1.3 8.1-2.6 12.1-3.9 1.7-.6 1-3.3-.8-2.8-3.8 1.2-7.6 2.5-11.4 3.7-1.6.5-3.2 1.2-4.9 1.6-3.3.8-4.9-.3-7.5-2.3-5.7-4.3-11.2-8.7-17-12.9-12-8.7-24.3-16.8-37-24.4-1.4-.9-2.8 1.5-1.3 2.5M1749.3 2836.3c-1.7-7.5-.9-15.6-1.5-23.3-.5-7-1.3-14-2.4-20.9-2.4-15.1-6.1-29.8-11.2-44.2-.6-1.7-3.4-1-2.8.8 5 14.4 8.8 29.2 11.2 44.2 1.2 7.8 2.1 15.6 2.5 23.5.4 6.9-.2 14 1.4 20.7.4 1.8 3.2 1 2.8-.8M1704.6 2858.4c14.2 3 28.1 7.6 41.4 13.5 5.5 2.5 11.2 6.4 17.2 7.6 6.3 1.3 12.4-2.3 18.6-.7 1.8.5 2.6-2.3.8-2.8-6.3-1.6-12.3 2-18.6.7-3.2-.6-6.2-2.4-9.2-3.9-3.3-1.6-6.6-3.2-10-4.6-12.7-5.5-25.8-9.8-39.4-12.6-1.8-.3-2.6 2.4-.8 2.8M1823.1 2893.8c-7-24.4-19-46.9-31-69.1-.9-1.6-3.3-.2-2.5 1.4 11.9 22 23.7 44.3 30.7 68.4.6 1.9 3.4 1.1 2.8-.7M1771.9 2946.7c10.3.1 20.4 1.4 30.4 3.5 9.2 1.9 18.3 3.9 27.7 2.5 1.8-.3 1-3-.8-2.8-9.9 1.5-19.8-1.3-29.4-3.2-9.2-1.8-18.5-2.8-27.9-2.9-1.9 0-1.9 2.9 0 2.9M1659.5 2702.6c2.5-2.3 2.6-5.9 2.7-9.1.2-4.9.2-9.9-.1-14.8-.4-9.7-1.7-19.4-3.6-29-.4-1.8-3.1-1-2.8.8 1.7 8.7 2.9 17.4 3.4 26.3.2 4.3.3 8.6.3 12.8 0 3.2.6 8.6-2 11-1.3 1.2.7 3.2 2.1 2" clip-path="url(#m)"/><path fill="#80dbda" d="M1552 2364.7c-7.2-10.8-11.7-49.7-25.9-51.5-11-1.4-13 13.1-13.6 21.5-8 44.7 63.9 68.8 39.5 30"/><defs><path id="n" d="M3313.3 2023.9c8.8 46.2-55.7 260.7-132.7 291.8-77 31.1-117 93.1-111.1 144.9 5.9 51.8 19.7 69.8 19.7 69.8s-46.2-45.5-102.5 28.4 74.6 117.7-4.5 202.7c-79.1 85.1-194.6-10.9-190.2 158.7 4.5 169.6 299.1 201.9 440.6 31.5s304.7-324.9 312.5-446c4.3-66.8-26.8-65.4-57.5-64.1-25 1.1-49.7 2.2-54.7-33.4-11.2-79.4 63.6-369.6-30.1-457.7-24.7-23.2-43.2-32.3-56.9-32.3-38.3.2-39.1 71.7-32.6 105.7"/></defs><clipPath id="o"><use overflow="visible" xlink:href="#n"/></clipPath><linearGradient id="p" x1="1829.018" x2="1833.492" y1="2781.832" y2="2781.832" gradientTransform="scale(-188.8 188.8) rotate(19.047 9159.631 -4118.04)" gradientUnits="userSpaceOnUse"><stop offset="0" stop-color="#b6f2f0"/><stop offset=".304" stop-color="#b6f2f0"/><stop offset=".406" stop-color="#90dbd9"/><stop offset=".522" stop-color="#6dc6c4"/><stop offset=".639" stop-color="#52b5b4"/><stop offset=".757" stop-color="#3ea9a8"/><stop offset=".876" stop-color="#33a2a1"/><stop offset="1" stop-color="#2fa09f"/></linearGradient><path fill="url(#p)" d="m3920.7 2994-1052 363.2-452.5-1310.6 1052.1-363.2z" clip-path="url(#o)"/><g opacity=".38"><defs><path id="q" d="M2626.6 1757h1082.9v1472.2H2626.6z"/></defs><clipPath id="r"><use overflow="visible" xlink:href="#q"/></clipPath><g clip-path="url(#r)"><defs><path id="s" d="M2626.6 1757h1082.9v1472.2H2626.6z"/></defs><clipPath id="t"><use overflow="visible" xlink:href="#s"/></clipPath></g></g><defs><path id="u" d="M3313.3 2023.9c8.8 46.2-55.7 260.7-132.7 291.8-77 31.1-117 93.1-111.1 144.9 5.9 51.8 19.7 69.8 19.7 69.8s-46.2-45.5-102.5 28.4 74.6 117.7-4.5 202.7c-79.1 85.1-194.6-10.9-190.2 158.7 4.5 169.6 299.1 201.9 440.6 31.5s304.7-324.9 312.5-446c4.3-66.8-26.8-65.4-57.5-64.1-25 1.1-49.7 2.2-54.7-33.4-11.2-79.4 63.6-369.6-30.1-457.7-24.7-23.2-43.2-32.3-56.9-32.3-38.3.2-39.1 71.7-32.6 105.7"/></defs><clipPath id="v"><use overflow="visible" xlink:href="#u"/></clipPath><path fill="#2d65af" d="M2936.3 2946.9c65.6 2.6 114.1-54.2 150.1-101.7 38-50.2 72.6-103 103.8-157.6 31.8-55.5 60.1-113 85-171.9 25.1-59.4 46.7-120.2 64.8-182 18.3-62.8 33-126.7 44-191.2 1.4-8.1 2.7-16.1 3.9-24.2.5-3.5-4.8-5-5.3-1.5-19.6 126.4-53.4 250.5-101 369.2-46.5 116-106.4 226.9-179.3 328.4-21 29.2-42.4 58.8-68.8 83.5-26.3 24.7-59.9 44.9-97.2 43.5-3.5-.1-3.5 5.4 0 5.5" clip-path="url(#v)"/><path fill="#2d65af" d="M3366.8 2513c-21.7 19.7-42.5 40.4-62.2 62-9.6 10.5-18.5 21.9-28.3 32.2-3.1 3.2-6 4.7-10.6 4.6-3.4-.1-6.9-.7-10.3-1-7.8-.8-15.6-1.5-23.4-2.3-3.5-.3-3.5 5.2 0 5.5 8.2.8 16.3 1.6 24.5 2.4 6.3.6 13.2 2.3 18.9-1.2 5.3-3.2 9.1-9.1 13.1-13.7 5.2-6.1 10.5-12.1 15.9-18 21-23.3 43.2-45.5 66.5-66.6 2.5-2.4-1.5-6.3-4.1-3.9M3179.3 2701.4c.4-13.2-3.7-26.6-5.7-39.6-2.2-14.6-3.6-29.2-4.4-43.9-1.5-29.1-.2-58.3 3.7-87.1.5-3.5-4.8-5-5.3-1.5-3.9 28.6-5.4 57.5-4 86.4.6 13.8 1.9 27.5 3.8 41.2 2 14.6 6.8 29.7 6.4 44.4-.1 3.6 5.4 3.6 5.5.1M3265 2719.6a407.52 407.52 0 0 0-70.2 39.7c-5.4 3.8-10.6 7.7-15.8 11.7-5.5 4.3-10.8 9.2-17.3 11.9-11.5 4.8-24.3.5-35.7 6.2-3.2 1.6-.4 6.4 2.8 4.8 11-5.6 24.1-1.1 35.4-6 5.7-2.5 10.4-6.5 15.3-10.3 5.9-4.7 12-9.2 18.2-13.6 22-15.5 45.5-28.8 70.2-39.7 3.1-1.4.3-6.1-2.9-4.7M3061.1 2838.9c3.7-48.1 17.6-94.4 31.6-140.3 1-3.4-4.3-4.9-5.3-1.5-14.1 46.4-28 93.2-31.7 141.8-.4 3.5 5.1 3.5 5.4 0M3172.9 2911.4c-18.1 4.1-35.6 9.8-52.7 17.1-17.5 7.4-34.9 16.3-54.2 17.5-3.5.2-3.6 5.8 0 5.5 18.3-1.2 35-8.8 51.6-16 18.4-8 37.2-14.4 56.8-18.9 3.4-.7 1.9-6-1.5-5.2M3295.2 2410.3c-5.8-3.4-6.7-13.7-8-19.6-1.8-8.1-3.4-16.3-4.6-24.5-2.5-16.6-3.7-33.4-3.8-50.3 0-3.6-5.5-3.6-5.5 0 .1 18.6 1.6 37.1 4.6 55.4 1.5 9.1 3.3 18.1 5.5 27.1 1.5 6.2 3.1 13.2 9.1 16.6 3 1.8 5.7-2.9 2.7-4.7" clip-path="url(#v)"/><path fill="#41acab" d="M3551.1 1912.1c5.4-16.1-1.3-69.4 15.6-75.2 13-4.4 20 14.6 23.3 25.8 23.6 58.2-56.5 107.1-38.9 49.4M3638.8 2304.5s55.9-149.4 123.8-158.4c67.8-9.1-110.7 233.6-123.8 158.4"/><path fill="none" stroke="#aecff1" stroke-linecap="round" stroke-linejoin="round" stroke-width="4.847" d="M2310.1 2553.4s9.4-.9 25.8-3.6"/><path fill="none" stroke="#aecff1" stroke-dasharray="11.706 11.706" stroke-linecap="round" stroke-linejoin="round" stroke-width="4.847" d="M2387.2 2539.8c141.1-31.8 427.3-132.1 439.4-423.7 13.6-327.5-271.2-864.5-359.7-1023"/><path fill="none" stroke="#aecff1" stroke-linecap="round" stroke-linejoin="round" stroke-width="4.847" d="M2454 1070.4c-8.3-14.6-13-22.5-13-22.5M2630.6 2995.5s-9.3.7-26 1.5"/><path fill="none" stroke="#aecff1" stroke-dasharray="11.479 11.479" stroke-linecap="round" stroke-linejoin="round" stroke-width="4.847" d="M2553.3 2998.7c-201.2 3.9-729.7-16.1-784.8-329.7-126-717.2 177.5-1214 278.4-1355.4"/><path fill="none" stroke="#aecff1" stroke-linecap="round" stroke-linejoin="round" stroke-width="4.847" d="M2062.1 1292.9c10.2-13.5 16.1-20.4 16.1-20.4"/><path fill="#aecff1" d="M4865.6 1605.7c-2.6 14.8-13.4 39.2-31.4 60.6l-31.3 1.2c-52.6-8.4-89-66.4-89-66.4 1 36.9-13.7 59.5-33.9 71.3-23.6 13.8-54.9 12.9-77.5 3.1-6.4-2.8-12.2-6.3-16.9-10.4-3.4 4.2-6.8 8-10.1 11.5-52 55.3-91.9 37.6-120.1 4.7-10.8-12.7-19.9-27.5-27.3-41.5-2.1 17.4-5.1 31.5-8.9 42.9-23.8 72.7-76.4 34-97.8 22-27.5 144-198.6 48.2-158.4-11.9 4.2-6.3 10.7-12.2 20-17.3-20.1 9.9-42.1 16-64.8 19.1l-54.5 2.2c-65.8-3.3-128.9-25.9-159.6-49.2 7.3 15.9 18.9 36.6 65 53 12.3 4.4 27 8.4 44.8 12-160 116.2-238.9 64.4-307.1-1.6-8.9-8.6-17.7-17.5-26.3-26.2-7.8 10.8-16 20.2-24.4 28.2-101.7 97.3-243.6 9.6-243.6 9.6-38-33.3-54.8-67-53.7-98.2 5.3-3.5 232-152.2 458.4-83.5 1.9-40.2 94.6-128.4 230.7-63.4l44.8 3.1s-156.8-115.9-134.5-162.3c68 29.4 303 41.7 347.8-83.5 44.8 51 119.1 52.6 142.3 27.9 47.9 60.3 69.5 102 32.4 117.5 21.6 17 59.6 29.2 35 56.5-25.7 24.7-71 42.9-107.1 52.5-29.9 4.2-48.4 7.6-48.4 7.6 9.3.7 27.3-2 48.4-7.6 132.1-19 487.6-54.1 457 116.5"/><g opacity=".38"><defs><path id="w" d="M3194.9 1072.4h1834.6V1945H3194.9z"/></defs><clipPath id="x"><use overflow="visible" xlink:href="#w"/></clipPath><g clip-path="url(#x)"><defs><path id="y" d="M3194.9 1072.4h1834.6V1945H3194.9z"/></defs><clipPath id="z"><use overflow="visible" xlink:href="#y"/></clipPath></g></g><path fill="#aecff1" d="M4118.1 1694.5c-18 2.5-36.3 3-54.5 2.2l54.5-2.2zM4834.2 1666.2c-10.9 2.6-21.4 2.8-31.3 1.2l31.3-1.2zM4360 1496.6s18.5-3.4 48.4-7.6c-21 5.5-39 8.2-48.4 7.6"/><path fill="#1fa463" d="m3353.6 984.8-165 287.4-149.1 259.7-154.6-264.4 318.5-548.8 131.4 235z"/><path fill="#ffd04c" d="M3817.1 1272.2H3527l-173.4-287.4-18.8-31.1-131.4-235h301.4z"/><path fill="#417ae3" d="M3039.5 1531.9s147.1 1.4 300.1 2.2l-151.1-261.8-149 259.6z"/><path fill="#4888f4" d="m3188.6 1272.2-.1.1 151.1 261.8c165.4.9 337.6 1 338.4-2.2 1.5-6.2 139.1-259.7 139.1-259.7h-628.5z"/><path fill="#1d3a6b" d="M2354.4 3335.6s375.4 20.1 622.9-112.6 482-212.4 374.3-231.6c-107.7-19.1-152.5-48.5-173.6-17.9-20.9 30.7-823.6 362.1-823.6 362.1"/><path fill="#444496" d="M2966.7 2987.5c22.4-26.8 58.2-44.7 85-71.6 31.3-35.8 53.7-76.1 62.6-125.3 13-129.7 28-257.4 39.6-384.5-18.5-139.9-37.8-245.5-37.8-245.5l-512.3-179.3s-340.2 1273.8-296.4 1346.4c20.1 33.2 197.9-19.4 384.9-86.2 106-62.7 193.2-150.7 274.4-254"/><path fill="#303072" d="M3153.9 2406.2c-11.6 127.1-26.6 254.7-39.6 384.5-8.9 49.2-31.3 89.5-62.6 125.3-26.8 26.8-62.6 44.7-85 71.6-81.1 103.3-168.4 191.3-274.2 254.1 221.4-79.1 455.6-178.1 455.6-178.1 65.6-94.8 36.7-424 5.8-657.4"/><g opacity=".2"><defs><path id="A" d="M2138.9 1819.6h1212.6v1682.5H2138.9z"/></defs><clipPath id="B"><use overflow="visible" xlink:href="#A"/></clipPath><g clip-path="url(#B)"><defs><path id="C" d="M2138.9 1819.6h1212.6v1682.5H2138.9z"/></defs><clipPath id="D"><use overflow="visible" xlink:href="#C"/></clipPath></g></g><path fill="#8383d6" d="M1844.8 2041.6c-1.3 13.9 18.6 1233.7 218 1266.1 141.8 23.1 255.6 56.7 291.7 27.8 36.1-28.9 288.6-1289.5 265.9-1341.9-22.7-52.3-757.6-145.2-775.6 48"/><path fill="#9696ea" d="M1868.9 2077.8c-1.2 13.1 17.7 1165.1 208.2 1195.8 135.5 21.8 231.3 33.8 265.8 6.5 34.5-27.3 278.8-1133.8 233.4-1239.3-21.4-49.6-690.1-145.5-707.4 37"/><path fill="#fff" d="M1951.6 2132.7c-8.9 3.9-21.5 36.5 26.8 32.2 48.3-4.3 41.5-8.2 42.9-15.9 1.4-7.7 10.4-18.4-7.9-20.9-18.2-2.5-52.9.7-61.8 4.6M1951.7 2233.8c-7.4 3.2-17.7 30.1 22.1 26.6s34.2-6.8 35.4-13.1c1.2-6.3 8.6-15.2-6.5-17.2-15-2.2-43.6.4-51 3.7M1950.5 2340.7c-6.1 2.7-14.7 24.9 18.3 22 33-2.9 28.3-5.6 29.3-10.9 1-5.2 7.1-12.6-5.4-14.3-12.4-1.7-36.1.5-42.2 3.2M1950.5 2448c-6.1 2.7-14.7 24.9 18.3 22 33-2.9 28.3-5.6 29.3-10.9 1-5.2 7.1-12.6-5.4-14.3-12.4-1.7-36.1.5-42.2 3.2M2667 2601c-3.2 2-9.1 3.4-16.3 3.3-25.7-.1-40.2-26.2-39.6-69.4.7-53.7 23.9-71.6 43.8-70.6 7.2.4 12.2 2.4 14.4 4.2l-3.4 18.2c-2.6-1.6-5.3-3.1-10.5-3.3-12.1-.6-24.8 12.7-25.2 50.5-.5 37.4 10.7 50.9 24.1 51 4.1 0 8.3-1.1 10.9-2.3l1.8 18.4zM2700.6 2467.9l-.9 89.1c-.2 22 5.2 29.1 11.9 29.2 7.3.1 12.3-6.8 12.6-28.7l.9-88.3 16.6.9-.8 84.2c-.3 34.5-11.2 50.7-29.5 50.7-19.6-.1-29.1-17-28.7-51l1-86.9 16.9.8zM2759.1 2581.1c3.8 3 10.5 5.4 15.8 5.5 9.9.1 15.3-7.3 15.4-18.1.1-10.6-4.8-16.7-13-24.3-11.2-9.7-19.1-23.1-18.9-37.4.2-20.7 11.2-36.4 30.1-35.4 6.5.3 12.3 3.1 14.9 5.5l-3.1 17.5c-2.7-2.4-6.9-4.8-12.3-5-9.1-.4-13.5 7.4-13.6 15.3-.1 10.2 3.9 15 14.2 24 12.7 11.1 17.6 23.9 17.5 37.9-.2 23.3-13.2 38.2-31.3 38.2-7.7 0-15.4-2.9-18.6-5.6l2.9-18.1zM2832.6 2493.6l-17.6-.8.1-18.8 50.1 2.6-.1 18.5-17.2-.8-.8 109.6h-15.3zM2926.8 2540.4c-.2 46.8-12.3 65.3-28.6 65.2-18.6-.1-27.9-27-27.6-65.5.2-38 11.1-64.2 29.7-63.2 19.2 1.1 26.6 29.9 26.5 63.5m-40.8.4c-.2 27.5 3.6 47.3 12.9 47.4 9.5.1 12.6-22.4 12.7-47.4.1-22.6-2.5-46.1-12.4-46.6-9-.4-13 20.2-13.2 46.6M2994.4 2557.7c-.5-13.6-1-30.1-.7-43.5h-.4c-1.7 13.2-4.1 27.8-6.2 39.3l-9.1 49.5h-9.5l-8.5-48.7c-2.2-12.6-4.6-27.9-6.1-41.7h-.4c-.2 13.9-.8 30.2-1.4 44.7l-1.8 47-12.4-.1 6.5-123.5 15 .8 8.3 49.9c2.6 15.9 4.8 28.7 6.4 42.6h.3c1.5-13.7 3.5-26.4 6.1-42.2l8.3-48.8 14.6.8 4.7 120.7h-12.3l-1.4-46.8zM3056.4 2550.9l-19.6-.5-.1 37.9 22.2.2v16.3l-35.5-.1.3-119.7 33.9 1.7v16.2l-20.7-.9-.1 32.6 19.6.6zM3072 2489.2c4.4-1.3 10-1.7 15.3-1.4 8.2.4 14.9 2.9 19.6 9.5 4.3 6.3 5.9 14.1 5.9 23.6 0 13.4-4.4 23.7-12.3 28.9v.3c5.5 3.1 8.4 10.8 10 24.5 1.6 14.2 3.5 26.5 4.8 30.5l-12.9-.1c-1-3.3-2.7-14.7-4.1-28.3-1.5-15.2-4.4-20.1-10.7-20.3l-2.9-.1v48.6l-12.7-.1v-115.6zm12.6 52.9 3.3.1c7.6.2 12.3-8.2 12.3-20 0-11.5-3.1-19.2-11.3-19.8-1.6-.1-3.2 0-4.2.5l-.1 39.2zM2632.3 2713.9c5.2-1.9 12.4-3.1 20-3.4 12.9-.4 21.9 3.1 28.4 10.4 8.8 9.6 14.1 27.3 13.8 54.8-.3 29.4-6.3 48.4-14.8 59.2-7.4 10.1-18.3 15.6-32.6 16.7-6.2.5-12.4.3-16.4-.1l1.6-137.6zm16.3 119c1.5.3 3.2.2 4.3.1 12-.9 23.2-14.4 23.7-56.5.3-31.2-6.5-49-21.7-48.4-1.7.1-3.6.3-5.1.9l-1.2 103.9zM2723.4 2809l-6.1 35.9-16.5 1.4 25.2-137.6 19.4-.7 20.2 132.9-16.1 1.3-5.2-34.7-20.9 1.5zm19.4-18.1-4.1-30.7c-1.2-8.7-2.5-21.1-3.5-30.5h-.4c-1.3 9.6-2.9 22.5-4.3 31l-4.9 31.3 17.2-1.1zM2784.9 2725.9l-18.3.7.1-19.3 52.2-1.8-.1 19-18 .7-.9 112.9-16 1.3zM2839.8 2800.8l-5.5 34.4-15.1 1.3 22.8-131.8 17.8-.6 18.9 127.4-14.7 1.2-4.9-33.3-19.3 1.4zm17.8-17.2-3.8-29.4c-1.1-8.4-2.3-20.3-3.3-29.3h-.4c-1.1 9.2-2.6 21.6-3.9 29.7l-4.5 30 15.9-1zM2893.3 2704.9c5-1.8 11.4-2.8 18.3-3.1 8.4-.3 16.2 1.4 21.7 8 4.4 5.2 6.4 13.1 6.3 21.9-.1 11.8-4.7 22.5-13.6 28.2v.6c10.5 3.4 16.3 14.9 16.2 29.9 0 10.3-2.5 18.7-6.6 25.2-5.3 8.6-14.3 13.3-27.5 14.4-6.8.6-11.9.4-15.5-.1l.7-125zm14.4 50.4 4.3-.2c7.4-.4 13.4-8.9 13.5-20.4 0-10.3-3.4-18.1-12.4-17.7-2.2.1-3.9.4-5.2 1l-.2 37.3zm-.3 58.6c1.2.3 2.7.3 4.6.2 8.9-.7 15.4-8.5 15.4-22.8.1-14.7-7.3-21.6-15.6-21.2l-4.2.3-.2 43.5zM2969.5 2791.8l-4.9 32.7-13.7 1.1 20.2-125.2 16.2-.5 17.5 121.3-13.4 1.1-4.5-31.7-17.4 1.2zm16-16.4-3.6-28c-1-8-2.1-19.3-3.1-27.8h-.4c-1 8.7-2.3 20.5-3.4 28.3l-3.9 28.5 14.4-1zM3015.5 2799.7c3.2 2.5 8.7 4.2 13.1 3.8 8.2-.6 12.6-7.8 12.7-17.7 0-9.7-4.1-14.9-10.9-21.3-9.3-8-15.9-19.7-15.8-32.8 0-19 9.1-34.2 24.7-34.7 5.3-.2 10.2 1.9 12.4 3.9l-2.5 16.3c-2.2-2-5.8-3.8-10.2-3.7-7.5.3-11.1 7.8-11.1 15.1 0 9.4 3.3 13.4 11.8 20.9 10.5 9.3 14.7 20.6 14.7 33.5 0 21.4-10.7 36-25.7 37.2-6.3.5-12.7-1.5-15.4-3.8l2.2-16.7zM3098.6 2759.8l-19 1.2-.1 37.7 21.6-1.7v16.2l-34.4 2.8.1-118.9 33-1.1v16.1l-20.2.8v32.4l19-1z"/><path fill="none" stroke="#aecff1" stroke-linecap="round" stroke-linejoin="round" stroke-width="4.847" d="M3101.1 2978.5s9 2.2 25.4 5.8"/><path fill="none" stroke="#aecff1" stroke-dasharray="11.581 11.581" stroke-linecap="round" stroke-linejoin="round" stroke-width="4.847" d="M3177.2 2994.8c219.9 43.3 849.3 139.3 986.5-148.5 141.2-296.1 90-902.2 70.9-1082.4"/><path fill="none" stroke="#aecff1" stroke-linecap="round" stroke-linejoin="round" stroke-width="4.847" d="M4231.7 1738.2c-1.9-16.7-3.1-25.8-3.1-25.8M3187.7 2793.8s9 2.8 25.1 6.9"/><path fill="none" stroke="#aecff1" stroke-dasharray="11.38 11.38" stroke-linecap="round" stroke-linejoin="round" stroke-width="4.847" d="M3262.5 2811.4c141.6 26.3 445.8 47.5 571.9-216.8 140.4-294.4 101-858.8 84.9-1031.2"/><path fill="none" stroke="#aecff1" stroke-linecap="round" stroke-linejoin="round" stroke-width="4.847" d="M3916.8 1538c-1.7-16.7-2.8-25.9-2.8-25.9"/><path fill="#ffc261" d="M2124.1 2159.4c0 9.5-7.7 17.3-17.3 17.3-9.5 0-17.3-7.7-17.3-17.3 0-9.5 7.7-17.3 17.3-17.3 9.5 0 17.3 7.8 17.3 17.3M2215.3 2161.5c0 8.4-4.3 15.2-9.5 15.2s-9.5-6.8-9.5-15.2c0-8.4 4.3-15.2 9.5-15.2s9.5 6.8 9.5 15.2"/><path fill="#dcf600" d="M2313.7 2168.7c0 7.8-6.3 14.2-14.2 14.2-7.8 0-14.2-6.3-14.2-14.2 0-7.8 6.3-14.2 14.2-14.2 7.9 0 14.2 6.3 14.2 14.2"/><path fill="#ffc261" d="M2409.3 2186.1c0 5.2-4.2 9.4-9.4 9.4s-9.4-4.2-9.4-9.4 4.2-9.4 9.4-9.4 9.4 4.2 9.4 9.4M2484.3 2191.3c0 8.1-3.7 14.7-8.2 14.7-4.6 0-8.2-6.6-8.2-14.7s3.7-14.7 8.2-14.7c4.5.1 8.2 6.6 8.2 14.7M2107.6 2253.2c0 9.5-7.7 17.3-17.3 17.3-9.5 0-17.3-7.7-17.3-17.3 0-9.5 7.7-17.3 17.3-17.3 9.6 0 17.3 7.7 17.3 17.3"/><path fill="#dcf600" d="M2198.8 2255.2c0 8.4-4.3 15.2-9.5 15.2-5.3 0-9.5-6.8-9.5-15.2 0-8.4 4.3-15.2 9.5-15.2 5.2.1 9.5 6.9 9.5 15.2M2297.2 2262.5c0 7.8-6.3 14.2-14.2 14.2-7.8 0-14.2-6.3-14.2-14.2 0-7.8 6.3-14.2 14.2-14.2 7.9 0 14.2 6.3 14.2 14.2"/><path fill="#ffc261" d="M2392.8 2279.8c0 5.2-4.2 9.4-9.4 9.4s-9.4-4.2-9.4-9.4 4.2-9.4 9.4-9.4 9.4 4.3 9.4 9.4M2467.8 2285.1c0 8.1-3.7 14.7-8.2 14.7-4.6 0-8.2-6.6-8.2-14.7s3.7-14.7 8.2-14.7c4.5 0 8.2 6.6 8.2 14.7"/><path fill="#dcf600" d="M2099.3 2354.2c0 9.5-7.7 17.3-17.3 17.3-9.5 0-17.3-7.7-17.3-17.3 0-9.5 7.7-17.3 17.3-17.3 9.6 0 17.3 7.8 17.3 17.3"/><path fill="#ffc261" d="M2190.6 2356.3c0 8.4-4.3 15.2-9.5 15.2s-9.5-6.8-9.5-15.2c0-8.4 4.3-15.2 9.5-15.2s9.5 6.8 9.5 15.2M2289 2363.5c0 7.8-6.3 14.2-14.2 14.2-7.8 0-14.2-6.3-14.2-14.2 0-7.8 6.3-14.2 14.2-14.2 7.8 0 14.2 6.3 14.2 14.2M2384.6 2380.9c0 5.2-4.2 9.4-9.4 9.4s-9.4-4.2-9.4-9.4 4.2-9.4 9.4-9.4c5.2-.1 9.4 4.2 9.4 9.4M2459.5 2386.1c0 8.1-3.7 14.7-8.2 14.7-4.6 0-8.2-6.6-8.2-14.7s3.7-14.7 8.2-14.7c4.6 0 8.2 6.6 8.2 14.7"/><path fill="#dcf600" d="M2097.8 2452.4c0 9.5-7.7 17.3-17.3 17.3-9.5 0-17.3-7.7-17.3-17.3 0-9.5 7.7-17.3 17.3-17.3 9.6 0 17.3 7.7 17.3 17.3"/><path fill="#ffc261" d="M2189 2454.4c0 8.4-4.3 15.2-9.5 15.2-5.3 0-9.5-6.8-9.5-15.2 0-8.4 4.3-15.2 9.5-15.2s9.5 6.8 9.5 15.2"/><path fill="#dcf600" d="M2287.4 2461.6c0 7.8-6.3 14.2-14.2 14.2-7.8 0-14.2-6.3-14.2-14.2 0-7.8 6.3-14.2 14.2-14.2 7.9.1 14.2 6.4 14.2 14.2"/><path fill="#ffc261" d="M2383 2479c0 5.2-4.2 9.4-9.4 9.4s-9.4-4.2-9.4-9.4 4.2-9.4 9.4-9.4 9.4 4.2 9.4 9.4M2458 2484.3c0 8.1-3.7 14.7-8.2 14.7-4.6 0-8.2-6.6-8.2-14.7s3.7-14.7 8.2-14.7c4.5 0 8.2 6.6 8.2 14.7"/><path fill="#fff" d="M1955.8 2543.6c-5.7 2.5-13.7 23.3 17.1 20.6 30.9-2.7 26.5-5.3 27.4-10.2.9-4.9 6.6-11.8-5-13.4-11.6-1.6-33.8.5-39.5 3"/><path fill="#dcf600" d="M2093.6 2547.7c0 8.9-7.2 16.2-16.2 16.2-8.9 0-16.2-7.2-16.2-16.2 0-8.9 7.2-16.1 16.2-16.1s16.2 7.2 16.2 16.1"/><path fill="#ffc261" d="M2179 2549.6c0 7.9-4 14.2-8.9 14.2s-8.9-6.4-8.9-14.2c0-7.9 4-14.2 8.9-14.2s8.9 6.4 8.9 14.2"/><path fill="#dcf600" d="M2271.1 2556.4c0 7.3-5.9 13.3-13.3 13.3-7.3 0-13.3-5.9-13.3-13.3s5.9-13.3 13.3-13.3c7.3 0 13.3 6 13.3 13.3"/><path fill="#ffc261" d="M2360.5 2572.7c0 4.9-3.9 8.8-8.8 8.8s-8.8-3.9-8.8-8.8 3.9-8.8 8.8-8.8 8.8 3.9 8.8 8.8M2430.7 2577.6c0 7.6-3.5 13.7-7.7 13.7-4.3 0-7.7-6.2-7.7-13.7 0-7.6 3.5-13.7 7.7-13.7s7.7 6.1 7.7 13.7"/><path fill="#fff" d="M1967.1 2654.8c-5.4 2.4-13 22.1 16.2 19.5 29.2-2.6 25.1-5 26-9.6.9-4.6 6.3-11.1-4.8-12.6-11-1.7-32 .3-37.4 2.7"/><path fill="#dcf600" d="M2097.5 2658.6c0 8.4-6.8 15.3-15.3 15.3-8.4 0-15.3-6.8-15.3-15.3s6.8-15.3 15.3-15.3c8.5.1 15.3 6.9 15.3 15.3"/><path fill="#ffc261" d="M2178.3 2660.5c0 7.4-3.8 13.5-8.4 13.5s-8.4-6-8.4-13.5c0-7.4 3.8-13.5 8.4-13.5s8.4 6 8.4 13.5"/><path fill="#dcf600" d="M2265.5 2666.9c0 6.9-5.6 12.6-12.6 12.6-6.9 0-12.5-5.6-12.5-12.6s5.6-12.5 12.5-12.5c6.9-.1 12.6 5.5 12.6 12.5"/><path fill="#ffc261" d="M2350.1 2682.3c0 4.6-3.7 8.3-8.3 8.3-4.6 0-8.3-3.7-8.3-8.3 0-4.6 3.7-8.3 8.3-8.3 4.6-.1 8.3 3.7 8.3 8.3M2416.5 2686.9c0 7.2-3.3 13-7.3 13s-7.3-5.8-7.3-13 3.3-13 7.3-13 7.3 5.9 7.3 13"/><path fill="#22559f" d="M3679.8 2683s-13.3 31.2 9.3 26.2c22.5-5 92.8-17.9 92.8-17.9s-49 82.9-22.5 82.3c26.5-.6 42-98.2 41.1-107.9-1-9.7-117.6 7.4-120.7 17.3M3830 2281s5.9 35.6 23.3 18.3 73.2-68.9 73.2-68.9 3.2 102.5 26.7 86.9c23.5-15.6-18.2-112.2-24.6-120.4-6.3-8.3-101.4 73.5-98.6 84.1M2827.4 1833.7s-12.2 27.2-23.4 6.2c-11.2-20.9-48-84.8-48-84.8s-23.4 83.5-40.1 61.7c-16.7-21.8 38.1-85.8 45.1-90.2 7.1-4.4 71 99.4 66.4 107.1M1971.6 1614.9s-27.3 20.6-26.9-6.7c.4-27.3-1.1-111.9-1.1-111.9s-69.8 70.9-74.5 39.7c-4.7-31.2 85.9-65 95.4-65.6 9.4-.5 16 139.3 7.1 144.5M1846 1785.2s-9.6 9.4-9.4-5.3c.2-14.7-11.4-46-11.4-46s-37.6 38.1-40.1 21.3 46.2-35 51.3-35.3c5.1-.1 14.3 62.5 9.6 65.3M4189.2 2467.3s8.5 32 20.1 18.6c11.6-13.4 49.4-52.7 49.4-52.7s13.7 90.6 30.3 79.4c16.6-11.2-26.5-100.8-32.3-108.7-5.9-8-70.9 53.7-67.5 63.4M4201.6 1947.2s7.2 27.4 17.2 15.9c9.9-11.4 42.2-45.1 42.2-45.1s11.7 77.5 25.9 67.9c14.2-9.6-22.6-86.2-27.6-93-5-6.7-60.6 46-57.7 54.3"/><defs><path id="E" d="M4663.8 1368.4s17 32.7 18 38.9c24.6 1.3 41.7-13.6 56.2-31.3-5.5 1.7-25.1-36-25.1-36l-49.1 28.4z"/></defs><clipPath id="F"><use overflow="visible" xlink:href="#E"/></clipPath><linearGradient id="G" x1="1906.723" x2="1911.198" y1="2787.246" y2="2787.246" gradientTransform="scale(14.381 -14.381) rotate(30.027 6492.378 -1603.745)" gradientUnits="userSpaceOnUse"><stop offset="0" stop-color="#ffc7d0"/><stop offset="1" stop-color="#e65e75"/></linearGradient><path fill="url(#G)" d="m4634.1 1357.2 85.3-49.4 48.4 83.6-85.4 49.4z" clip-path="url(#F)"/><path fill="#2c64ad" d="M4705 1473.3c9.5 11.8 22.5 17.1 40 6.5 34.2-20.7 125.1-61.6 138.3-88.2 1.9-3.9 2.6-7.8 2.3-11.6-55.5 40.9-112.7 81.3-180.6 93.3"/><path fill="#102538" d="M4885.5 1380c-1.9-22.6-39-42.4-71.2-30.5-39.6 14.6-64.5 22.8-76.3 26.5-14.5 17.7-31.6 32.6-56.2 31.3 2.5 16.4 9.1 48.4 23.2 66 67.9-12 125.1-52.4 180.5-93.3"/><path fill="#fff" d="M4713.9 1427.1s4.1 25.6 12.1 28.1l16.8-4.9-12.5-27.9-16.4 4.7z"/><defs><path id="H" d="M4088.3 436.7c-6.2 9.2-9.7 12.1 5.3 24.2 4.9 2.7 8.4-.1 12-2.8 3.4-2.7 7-5.4 12.1-3.1 17 7.7 69.3 30.9 60-27.8-3.3-20.9-12.3-28.4-23.6-28.4-20.6 0-48.9 24.3-65.8 37.9"/></defs><clipPath id="I"><use overflow="visible" xlink:href="#H"/></clipPath><linearGradient id="J" x1="1792.323" x2="1796.797" y1="2857.452" y2="2857.452" gradientTransform="scale(16.947 -16.947) rotate(-45.265 -2438.998 3275.19)" gradientUnits="userSpaceOnUse"><stop offset="0" stop-color="#ffc7d0"/><stop offset="1" stop-color="#e65e75"/></linearGradient><path fill="url(#J)" d="m4133.3 344.6 97.2 98.1-98.2 97.3-97.3-98.1z" clip-path="url(#I)"/><path fill="#ffa42c" d="M3861.6 580.2c112 52.5 215.7-18.1 270.6-113.4-2.5-5-7.8-15.1-18-34.8-10.6 10.5-137.6 148.8-205.6 136.4-36.6-6.7-100.9-81.3-147.1-114.3 32.7 41.7 47.4 99.7 100.1 126.1"/><path fill="#f78d0f" d="M3861.6 580.2c-52.7-26.3-67.4-84.4-100-126.1-17.9-12.8-65.1-37.6-84.1-36.8-119.2 5.1-15.8 128.1 28.8 178.2 223.2 211.7 428-124.5 428-124.5s-.5-1.1-2.1-4.2c-54.9 95.2-158.7 165.8-270.6 113.4"/><path fill="#4b4be2" d="M4085.3 942.6c106.7-76.2 219.2-125 336.7-148.9-13.7-11.6-27.8-22.4-42.4-32.1-85.6-57-279.6 119-333.8 170.9 6.2 23 31 18.6 39.5 10.1"/><path fill="#0d0d6d" d="M4422 793.7c-117.5 23.9-230 72.6-336.7 148.9-8.5 8.5-33.3 12.9-39.5-10-9.1 8.7-14.3 14-14.3 14-69.5-175.2-152.6-55.5-277.3-8.3-10.4 55.2 137.4 522.4 633.6 47.5 151.3 229.5 291.9 382.2 291.9 382.2l50.3-15.3s-98.3-380.9-308-559"/><defs><path id="K" d="M4617.3 1408c20.1 14.3 42.5 10.9 64.3 3.8-5.6-1.5-1.8-43.9-1.8-43.9l-56.7-2.4s-3.2 36.7-5.8 42.5"/></defs><clipPath id="L"><use overflow="visible" xlink:href="#K"/></clipPath><linearGradient id="M" x1="1888.619" x2="1893.094" y1="2826.663" y2="2826.663" gradientTransform="scale(14.381 -14.381) rotate(-2.451 -67237.595 38008.45)" gradientUnits="userSpaceOnUse"><stop offset="0" stop-color="#ffc7d0"/><stop offset="1" stop-color="#e65e75"/></linearGradient><path fill="url(#M)" d="m4617.5 1362.8 66.5 2.8-2.5 59.4-66.6-2.8z" clip-path="url(#L)"/><path fill="#2c64ad" d="M4601.5 1476.1c1.7 15.1 9.8 26.5 30.2 27 40 .9 138.6 15.2 164-.2 3.7-2.2 6.4-5.2 8.1-8.6-68.6 4.8-138.6 8.2-202.3-18.2"/><path fill="#304c6a" d="M4803.9 1494.3c10.6-20.1-10.2-56.7-43.7-64-41.2-8.9-66.6-15.4-78.6-18.6-21.7 7.1-44.2 10.5-64.2-3.8-6.6 15.2-18.3 45.7-15.8 68.2 63.6 26.4 133.6 23 202.3 18.2"/><path fill="#fff" d="M4633.8 1441.9s-10.3 23.8-4.9 30.2l16.8 4.8 4.4-30.2-16.3-4.8z"/><path fill="#6359f5" d="M4563.9 839.4c-164.3-120.3-477.2 117.5-477.2 117.5-66.4-167.5-239-49.8-363 2.1 10.6 91.5 55.4 181.3 146.9 207.4 80.5 22.4 161.1 35.8 232.7 8.9 143.2-44.7 250.6-161.1 375.9-241.6-4.5 58.2 8.9 111.9 22.4 170 17.9 80.5 59.6 155 81.5 232.9 18.9 30.3 32.2 49.1 32.2 49.1l66.6-6.7c-.2-.1 7.9-451-118-539.6"/><path fill="#252599" d="M4479.1 933.7c-125.3 80.5-232.7 196.9-375.9 241.6-71.6 26.8-152.1 13.4-232.7-8.9-91.5-26.1-136.3-115.9-146.9-207.4-5.7 2.4-11.3 4.6-16.8 6.7-10.4 54.9 90.5 626.1 751.8-4.6-33.3 103.6 69.4 287.8 124.2 375.5-21.9-77.8-63.6-152.4-81.5-232.9-13.3-58.2-26.7-111.9-22.2-170"/><path fill="#ef5a07" d="M3574.7 454.5c-91.4 73.6-50.5 272.9 44.8 447.5l115.8 213.1s17.2-33.9 45.5-39.2c12.7-2.4 42.3-23.8 72.7-48-8.9-6.5-18.1-12.7-27.6-18.2-187.1-108.7-255.7-352.6-251.2-555.2"/><path fill="#ff7116" d="M4071.6 900.4s63-35.9-36.6-125.1c-99.6-89.2-289.4-370.8-397.2-367-25.6 4.2-46.9 20.6-63.1 46.2-4.5 202.6 64.1 446.5 251.1 555.2 9.5 5.5 18.7 11.6 27.6 18.2 37.3-29.7 76-63.6 86.5-71.7 19.2-14.7 129.1-28.5 131.7-55.8"/><path fill="#342051" d="M3955.8 389.8c12.4-8.5 121.4-20.1 124.5-21.6 3.1-1.5 58-78.8 64.9-75 7 3.9 10.8 206.5 15.5 217.9 4.6 11.4-24.7 75-47.9 79.7-23.2 4.7-90 6.4-92.8-9.5-2.8-16-76.6-183-64.2-191.5"/><defs><path id="N" d="M3957.8 453.4c-9.1 40.4 15.2 84.2 12.3 120.3-1.2 14.6 24.8 30.2 33.3 16.4 6.1-18.6-5.6-39.6 13.9-48.6 20.9-9.6 18.6-64.3-5.5-64.6-3.2-1-7.5-.7-12-.3-7.1.6-14.2 1.2-16.7-4-2.5-11-5.9-39.4-15.6-46.1-8.6 4.4-7.7 18.4-9.7 26.9"/></defs><clipPath id="O"><use overflow="visible" xlink:href="#N"/></clipPath><linearGradient id="P" x1="1832.834" x2="1837.309" y1="2758.896" y2="2758.896" gradientTransform="scale(-60.8641 60.8641) rotate(-22.557 -6011.505 6145.666)" gradientUnits="userSpaceOnUse"><stop offset="0" stop-color="#ffc7d0"/><stop offset="1" stop-color="#e65e75"/></linearGradient><path fill="url(#P)" d="m4025 635.6-139.1-57.8 76-182.9 139.1 57.8z" clip-path="url(#O)"/><path fill="#ffa42c" d="M3673.7 777c151.6 67 247.7-71.7 332-197-12.3-12.3-41.4-30.2-41.4-30.2-26.4 56.3-90.1 108.7-154.2 143.9s-93.8-36-108.1-65.5c-14.3-29.5-47.3-91.5-52.4-116.2-5.1-24.7-55.5-67.4-105.8-3.8-5 6.3-8.8 14.6-11.7 24.3 8.4 99.4 50.3 208.9 141.6 244.5"/><path fill="#f78d0f" d="M4005.6 580.1c-84.3 125.3-180.3 264-332 197-91.2-35.7-133.2-145.2-141.6-244.4-26 89.6 37.1 307 198 283.8 178.5-25.8 282.6-218.6 280.9-228.7-.2-2-2.2-4.7-5.3-7.7"/><defs><path id="Q" d="M3599.5 348.4s-.1 76-6.3 89.2c-13.4 18.2 21 19 27 20.4 39.6 8.9 53.5-10.4 47.2-29.9-6.1-27.5-8.9-86.5-8.9-86.5l-59 6.8z"/></defs><clipPath id="R"><use overflow="visible" xlink:href="#Q"/></clipPath><linearGradient id="S" x1="1881.848" x2="1886.323" y1="2777.785" y2="2777.785" gradientTransform="matrix(.02 -26.298 -26.298 -.02 76639.344 50014.75)" gradientUnits="userSpaceOnUse"><stop offset="0" stop-color="#ffc7d0"/><stop offset="1" stop-color="#e65e75"/></linearGradient><path fill="url(#S)" d="M3579.7 341.5h94.1v125.4h-94.1z" clip-path="url(#R)"/><defs><path id="T" d="M3640.4 257s-64.3-1.8-79.6 34.8c-15.2 36.5 21.3 60.8 48.8 75.5 49.5 28.7 56.6-5.4 62.7-59.9 5.3-47.4-22.8-50.5-30.2-50.5-1.1 0-1.7.1-1.7.1"/></defs><clipPath id="U"><use overflow="visible" xlink:href="#T"/></clipPath><linearGradient id="V" x1="1787.726" x2="1792.201" y1="2821.41" y2="2821.41" gradientTransform="scale(25.009 -25.009) rotate(-48.575 -2173.372 3227.566)" gradientUnits="userSpaceOnUse"><stop offset="0" stop-color="#ffc7d0"/><stop offset="1" stop-color="#e65e75"/></linearGradient><path fill="url(#V)" d="m3619.9 189.7 127.6 144.6-144.1 127.1-127.6-144.6z" clip-path="url(#U)"/><path fill="#1b2c49" d="M3626.2 280.7s45.6 5.8 50.6-17.8-18.1-33.9-43.1-32.8c-16.8.7-109.6 11.9-86.5 112.1 10.5 28 38.8 21.1 43.8 2.7 19.7.9 6.4-21.7-1.2-31.9 12.2 3.1 20.6-19.1 14.6-29.1 14.4 4.1 26 4.9 21.8-3.2M3675.9 331s-25.9-9.8-34.6 9.8c-8.7 19.5-7.6 16.2-22.1 14.3-14.5-1.9-8.4 26.7 11.9 26.1 20.3-.6 39.8 2.7 40.7-17.7.9-20.5 5.4-16.3 10-18.4 4.6-2.3-2.3-13-5.9-14.1"/><path fill="#ffa42c" d="M3684.2 471.2c7.2 0 7.2-11.2 0-11.2s-7.2 11.2 0 11.2M3703.9 494c7.2 0 7.2-11.2 0-11.2-7.2.1-7.2 11.2 0 11.2M3723.1 524.3c7.2 0 7.2-11.2 0-11.2-7.2.1-7.3 11.2 0 11.2"/><path fill="#d8d5f7" d="M4365.5 1150.2c-1.6-.3-8.3-9.8-19.4-19.5-6.5-11.8-24.7-23.2-60.8-21.2-33.3 1.8-46.7 19.7-52 34.4-1.8 2-3.6 4-5.4 6.1-14.2 3.9-29.1 8.7-44.2 14-107-4.9-194.9 67.6-219 89.6-8.7 2.5-15.4 3.5-19.4 2.6-34.4-8.6-119.1-7.6-93.4 65.5 28.7 72.3 184.5 127.4 184.5 127.4-85.8-3.3-230.8-93.4-244.2 43.9-253.3-38.7-430 34.2-433.5 131.1 5.3-3.5 232-152.2 458.4-83.5 1.9-40.2 94.6-128.4 230.7-63.4l44.8 3.1s-156.8-115.9-134.5-162.3c68 29.4 303 41.7 347.8-83.5 44.8 51 119.1 52.6 142.3 27.8 47.9 60.3 69.5 102 32.4 117.5 21.6 17 59.6 29.2 35 56.5 16.9-16.2 25.3-35.3 17-56.5 74.5-55.5 109-177-167.1-229.6"/><path fill="#fff" d="m1807.9 259.6-6.5.2c-2.2-5.5-3.1-9-3.2-9.7.7.6 4 4.2 9.7 9.5"/><path fill="#fff" d="m1807.9 259.6-6.5.2c-2.2-5.5-3.1-9-3.2-9.7.7.6 4 4.2 9.7 9.5"/><path fill="#d8d5f7" d="M3003.3 816.8c-46.7 2.9-114.3 9.1-152.1 15.9 0-6.6-1.2-12.7-3.4-18.6-27.3-72.1-213-87-288.8-72.3 10.8-63-58.7-99.4-103.6-63.8-103.6-143.8-286-40.2-312.3 40.6-291.5-69.4-445.2 5.7-505 86.3-18.5 25-28.1 50.5-29.9 72.4-12.7-15.7-59-33.6-103.4-47.8 43.9 1 79.9 10.8 79.9 10.8-4.6-12.6-7.3-24.5-8.5-35.7-19.2-188.5 418.8-198 529.6-151-8.9-152.9 302.4-183.2 382.5-89 74.8-64 129.9 28.5 105 142.3 0 0 195.7-65.9 266.8 101.4 55.7-4.9 101.1-1.9 137.2 6.9 2.1.6 4.1 1.1 6 1.6"/><path fill="#8282c4" d="M3069.3 1065.4c-33.5 35.6-81.3 57.1-132.7 46.6 0 166.7-103.1 134-208.1 134-99.6 247.2-357.5 133.3-435.8 33.6-71.2 142.2-290 76.7-389.6-44.3-250.8 153-318.4-138.7-318.4-138.7s-156.8 42.2-215.1-50.1c59.8 46.1 152.7 88.3 226.4-10.4 78.3 168.4 168.4 241.9 258.5 80.6-135.1-43.8-174.1-111.9-184.2-137.1l6.5-.2c45.6 42.9 245.5 205.9 476.5 18.8-73.6 158.9-40.3 258.5 87.7 244.2 105-11.6 132-173.3 91-279.5-9-23.3-21.2-43.9-36.5-59.7 59.7 25.8 132.2 46.1 198.6 55.6 55.7 8.1 107 8.6 142.6-1.7-160.8 114.9-111.8 228.9 26.4 176.2 109.1 47.4 211 33.2 225.3-35.5-78.3-85.4-64.1-123.4-64.1-123.4s85.1 124.1 245 91"/><path fill="#d2e6f9" d="M3069.3 1065.4c-159.9 33.1-244.7-91-244.7-91s-14.2 37.9 64.1 123.4c-14.3 68.8-116.2 83-225.3 35.6-138.3 52.7-187.3-61.3-26.5-176.2-35.7 10.3-87 9.8-142.7 1.7-66.4-9.5-138.9-29.8-198.6-55.6 15.4 15.8 27.5 36.4 36.5 59.7 40.9 106.2 14 267.9-91 279.5-128 14.3-161.3-85.4-87.7-244.2-231 187.2-430.9 24.2-476.5-18.8-5.7-5.3-9-8.9-9.7-9.5.1.7 1 4.2 3.2 9.7 10.1 25.2 49 93.3 184.2 137.1-90.1 161.3-180.3 87.7-258.5-80.7-73.7 98.7-166.6 56.5-226.4 10.4-9.9-15.5-16.9-34.9-20-58.8-.9-6.6-1.4-13.6-1.6-21-3.3-118 86.8-138.7 156.7-137.1 44.4 14.3 90.7 32.1 103.4 47.8 1.8-21.9 11.4-47.4 29.9-72.4 59.9-80.6 213.5-155.7 505-86.3 26.3-80.8 208.7-184.4 312.3-40.6 44.8-35.6 114.4.8 103.6 63.8 75.8-14.7 261.5.1 288.8 72.3 2.2 5.8 3.4 12 3.4 18.6 37.8-6.8 105.4-13 152.1-15.9 80.2 21.5 113.3 72.5 115.1 126.3 1.5 43.5-17.7 89.1-49.1 122.2"/><g opacity=".38"><defs><path id="W" d="M1185.8 441.4h2094.1v966.5H1185.8z"/></defs><clipPath id="X"><use overflow="visible" xlink:href="#W"/></clipPath><g clip-path="url(#X)"><defs><path id="Y" d="M1185.8 441.4h2094.1v966.5H1185.8z"/></defs><clipPath id="Z"><use overflow="visible" xlink:href="#Y"/></clipPath></g></g><path fill="#8282c4" d="M4834.2 1666.2c-26 30.8-67 55.3-120.3 34.9 35.8 76.2-151.3 170.5-265.9 65.1-157.9 153.3-333.7 88.4-416.4.7-139.7 51.4-262.8 92.8-351.2-54.6-91.2 122.7-225 47.6-268 10 0 0 141.9 87.7 243.6-9.6 8.5-8.1 16.6-17.4 24.4-28.2 8.7 8.8 17.4 17.6 26.3 26.2 68.2 66 147.1 117.8 307.1 1.6-17.8-3.6-32.5-7.6-44.8-12-46.1-16.4-57.6-37.1-65-53 30.7 23.3 93.8 45.9 159.6 49.2 18.1.9 36.5.3 54.5-2.2 22.7-3.1 44.7-9.2 64.8-19.1-9.2 5.2-15.7 11.1-20 17.3-40.2 60.1 131 156 158.4 11.9 21.4 12 74 50.6 97.8-22 3.8-11.4 6.8-25.5 8.9-42.9 7.4 13.9 16.5 28.8 27.3 41.5 28.1 32.9 68 50.5 120.1-4.7 3.3-3.5 6.7-7.3 10.1-11.5 4.7 4.1 10.5 7.6 16.9 10.4 22.7 9.8 53.9 10.8 77.5-3.1 20.2-11.8 34.9-34.3 33.9-71.3 0 0 36.5 58 89 66.4 10 1.8 20.5 1.7 31.4-1"/><path fill="#aecff1" d="M4118.1 1694.5c-18 2.5-36.3 3-54.5 2.2l54.5-2.2zM4834.2 1666.2c-10.9 2.6-21.4 2.8-31.3 1.2l31.3-1.2z"/><path fill="#d8d5f7" d="M4074.5 378.7s24.8 205.1 31.5 205.6c6.7.5 16 1 13.4-8.2-2.6-9.3-23.2-198.4-31.4-199.9-8.3-1.6-13.5 2.5-13.5 2.5M4080.2 368.1s38.1-92.5 46.4-84.3l2.1 17.5v5.9l-48.5 60.9z"/><defs><path id="aa" d="M4155.5 368.7c-.3 14.2 2.8 12.1-13.1 15.5-16 3.4-5.9 37.6-5.9 60.6 0 22.9 22.4 19.1 22.4 19.1 20.9.8 14.9-39.4 13.1-47.4-1.8-8 4.1-49.7-1.8-60-1.8-3.2-3.9-4.6-5.9-4.6-4.5-.2-8.7 6.9-8.8 16.8"/></defs><clipPath id="ab"><use overflow="visible" xlink:href="#aa"/></clipPath><linearGradient id="ac" x1="1830.891" x2="1835.365" y1="2777.208" y2="2777.208" gradientTransform="scale(-351.313 351.313) rotate(-44.602 -2473.472 3638.538)" gradientUnits="userSpaceOnUse"><stop offset="0" stop-color="#ffc7d0"/><stop offset="1" stop-color="#e65e75"/></linearGradient><path fill="url(#ac)" d="m4153.4 494.3-85-83.8 84.2-85.4 85 83.8z" clip-path="url(#ab)"/></svg>