<svg xmlns="http://www.w3.org/2000/svg" style="isolation:isolate" width="512" height="512" viewBox="0 0 512 512"><path fill="#9FE5FF" d=" M 501.731 330.712 C 504.496 322.794 506 314.285 506 305.428 C 506 263.069 471.61 228.679 429.251 228.679 C 419.366 228.679 409.915 230.552 401.231 233.958 C 395.459 173.638 344.581 126.412 282.759 126.412 C 225.108 126.412 176.973 167.482 166.065 221.944 C 160.106 220.368 153.846 219.536 147.395 219.536 C 107.557 219.536 75.069 251.254 73.83 290.793 C 68.989 288.485 63.571 287.197 57.854 287.197 C 37.263 287.197 20.546 303.914 20.546 324.505 C 20.546 326.619 20.722 328.693 21.061 330.712 L 501.731 330.712 Z "/><linearGradient id="a" x1=".254" x2=".66" y1=".993" y2=".061" gradientTransform="matrix(485.454 0 0 204.3 6 139.958)" gradientUnits="userSpaceOnUse"><stop offset="1.739%" stop-color="#0397f2"/><stop offset="99.13%" stop-color="#3ccbff"/></linearGradient><path fill="url(#a)" d=" M 487.185 344.258 C 489.95 336.34 491.454 327.831 491.454 318.974 C 491.454 276.615 457.064 242.225 414.705 242.225 C 404.82 242.225 395.368 244.098 386.685 247.504 C 380.913 187.184 330.035 139.958 268.213 139.958 C 210.562 139.958 162.427 181.028 151.519 235.49 C 145.559 233.914 139.3 233.082 132.848 233.082 C 93.011 233.082 60.523 264.8 59.284 304.339 C 54.443 302.031 49.024 300.743 43.308 300.743 C 22.717 300.743 6 317.46 6 338.051 C 6 340.165 6.176 342.239 6.515 344.258 L 487.185 344.258 Z "/><path fill="#FFDC74" fill-rule="evenodd" d=" M 121.82 281.32 L 404.73 281.32 L 404.73 374.54 L 121.82 374.54 L 121.82 281.32 Z  M 128.82 288.32 L 397.73 288.32 L 397.73 367.54 L 128.82 367.54 L 128.82 288.32 Z "/><linearGradient id="b" x1=".406" x2=".661" y1="1.019" y2=".115" gradientTransform="matrix(275.915 0 0 86.224 110.769 299.365)" gradientUnits="userSpaceOnUse"><stop offset="0%" stop-color="#fbb334"/><stop offset="100%" stop-color="#ffdc74"/></linearGradient><path fill="url(#b)" d=" M 110.769 299.365 L 386.685 299.365 L 386.685 385.588 L 110.769 385.588 L 110.769 299.365 Z "/><circle r="1" fill="#FFF" transform="translate(149.57 342.476) scale(12.934)" vector-effect="non-scaling-stroke"/><circle r="1" fill="#FFF" transform="translate(184.059 342.476) scale(12.934)" vector-effect="non-scaling-stroke"/><circle r="1" fill="#FFF" transform="translate(218.549 342.476) scale(12.934)" vector-effect="non-scaling-stroke"/></svg>